<?xml version="1.0" encoding="UTF-8"?>
<svg id="Layer_1" data-name="Layer 1" xmlns="http://www.w3.org/2000/svg" viewBox="0 0 886.88 189.26">
  <defs>
    <style>
      .cls-1 {
        fill: #bf0a2e;
      }

      .cls-2 {
        fill: #13294b;
      }
    </style>
  </defs>
  <g>
    <path class="cls-2" d="M97.16,58.02v-9.26h-1.95c-2.13,0-3.63-1.5-3.63-3.63v-17.74h6.12v15.52c0,.23.23.45.41.45h4.36c.18,0,.23-.23.23-.45v-15.52h6.12v17.74c0,2.13-1.54,3.63-3.68,3.63h-1.9v9.26h-6.08Z"/>
    <path class="cls-2" d="M128.7,27.21c1.95,0,3.31,1.36,3.31,3.31v24.32c0,1.95-1.36,3.31-3.31,3.31h-10.71c-2,0-3.31-1.36-3.31-3.31v-24.32c0-1.95,1.32-3.31,3.31-3.31h10.71ZM125.88,32.84c0-.27-.23-.5-.36-.5h-4.4c-.23,0-.32.32-.32.5v19.69c0,.18.14.41.32.41h4.4c.13,0,.36-.18.36-.41v-19.69Z"/>
    <path class="cls-2" d="M145.03,27.39v25.09c0,.23.23.41.32.41h4.08c.14,0,.36-.18.36-.41v-25.09h6.17v27c0,2.13-1.54,3.63-3.68,3.63h-9.75c-2.13,0-3.63-1.5-3.63-3.63v-27h6.12Z"/>
    <path class="cls-2" d="M189.18,58.02h-6.08v-12.66h-5.4v12.66h-6.08v-30.63h6.08v12.84h5.4v-12.84h6.08v30.63Z"/>
    <path class="cls-2" d="M213.09,58.02h-6.08v-8.44h-4.85v8.44h-6.08v-27.31c0-1.95,1.32-3.31,3.27-3.31h10.44c1.95,0,3.31,1.36,3.31,3.31v27.31ZM207.01,44.5v-11.25c0-.45-.36-.73-.82-.73h-3.27c-.45,0-.77.32-.77.73v11.25h4.85Z"/>
    <path class="cls-2" d="M236.69,27.39l-6.44,30.63h-6.03l-6.4-30.63h6.4l3.09,20.83,3.4-20.83h5.99Z"/>
    <path class="cls-2" d="M241.73,27.39h14.47v5.22h-8.35v7.4h7.03v5.13h-7.03v7.67h8.35v5.22h-14.47v-30.63Z"/>
    <path class="cls-2" d="M279.3,63.14l-1.91-5.13h-3.45c-2.09,0-3.58-1.5-3.58-3.63v-23.37c0-2.13,1.5-3.63,3.58-3.63h9.98c2.13,0,3.63,1.5,3.63,3.63v23.37c0,2.13-1.5,3.63-3.63,3.63h-.73l1.95,5.13h-5.85ZM281.38,33.11c0-.27-.18-.5-.36-.5h-4.22c-.14,0-.32.23-.32.5v19.28c0,.23.18.41.32.41h4.22c.18,0,.36-.18.36-.41v-19.28Z"/>
    <path class="cls-2" d="M300.58,27.39v25.09c0,.23.23.41.32.41h4.08c.14,0,.36-.18.36-.41v-25.09h6.17v27c0,2.13-1.54,3.63-3.68,3.63h-9.75c-2.13,0-3.63-1.5-3.63-3.63v-27h6.12Z"/>
    <path class="cls-2" d="M318.68,27.39h14.47v5.22h-8.35v7.4h7.03v5.13h-7.03v7.67h8.35v5.22h-14.47v-30.63Z"/>
    <path class="cls-2" d="M338.1,52.66h7.99c.27,0,.41-.18.41-.41v-6.44c0-.23-.14-.41-.41-.41h-4.72c-1.91,0-3.27-1.41-3.27-3.31v-11.39c0-1.95,1.36-3.31,3.27-3.31h10.89v5.22h-7.67c-.23,0-.41.23-.41.5v6.35c0,.18.18.41.41.41h4.72c1.91,0,3.31,1.36,3.31,3.31v11.52c0,1.95-1.41,3.31-3.31,3.31h-11.21v-5.35Z"/>
    <path class="cls-2" d="M372.13,27.39v5.22h-4.99v25.41h-6.12v-25.41h-4.99v-5.22h16.11Z"/>
    <path class="cls-2" d="M382.66,58.02h-5.94v-30.63h5.94v30.63Z"/>
    <path class="cls-2" d="M403.58,27.21c1.95,0,3.31,1.36,3.31,3.31v24.32c0,1.95-1.36,3.31-3.31,3.31h-10.71c-2,0-3.31-1.36-3.31-3.31v-24.32c0-1.95,1.32-3.31,3.31-3.31h10.71ZM400.76,32.84c0-.27-.23-.5-.36-.5h-4.4c-.23,0-.32.32-.32.5v19.69c0,.18.14.41.32.41h4.4c.13,0,.36-.18.36-.41v-19.69Z"/>
    <path class="cls-2" d="M419.19,41.05v16.97h-5.4v-30.63h5.35l7.03,17.7v-17.7h5.4v30.63h-5.4l-6.99-16.97Z"/>
    <path class="cls-2" d="M437.75,52.66h7.99c.27,0,.41-.18.41-.41v-6.44c0-.23-.14-.41-.41-.41h-4.72c-1.91,0-3.27-1.41-3.27-3.31v-11.39c0-1.95,1.36-3.31,3.27-3.31h10.89v5.22h-7.67c-.23,0-.41.23-.41.5v6.35c0,.18.18.41.41.41h4.72c1.91,0,3.31,1.36,3.31,3.31v11.52c0,1.95-1.41,3.31-3.31,3.31h-11.21v-5.35Z"/>
    <path class="cls-2" d="M460.89,50.98h6.58l-4.67,12.89h-5.44l3.54-12.89Z"/>
    <path class="cls-2" d="M506.99,27.39l-4.63,30.63h-5.22l-3.58-19.15-3.68,19.15h-5.22l-4.67-30.63h5.9l2.13,19.6,3.09-19.6h5.08l3.09,19.42,2.27-19.42h5.44Z"/>
    <path class="cls-2" d="M511.98,27.39h14.47v5.22h-8.35v7.4h7.03v5.13h-7.03v7.67h8.35v5.22h-14.47v-30.63Z"/>
    <path class="cls-2" d="M558.44,58.02h-6.08v-12.66h-5.4v12.66h-6.08v-30.63h6.08v12.84h5.4v-12.84h6.08v30.63Z"/>
    <path class="cls-2" d="M582.35,58.02h-6.08v-8.44h-4.85v8.44h-6.08v-27.31c0-1.95,1.32-3.31,3.27-3.31h10.44c1.95,0,3.31,1.36,3.31,3.31v27.31ZM576.27,44.5v-11.25c0-.45-.36-.73-.82-.73h-3.27c-.45,0-.77.32-.77.73v11.25h4.85Z"/>
    <path class="cls-2" d="M605.95,27.39l-6.44,30.63h-6.03l-6.4-30.63h6.4l3.09,20.83,3.4-20.83h5.99Z"/>
    <path class="cls-2" d="M610.99,27.39h14.47v5.22h-8.35v7.4h7.03v5.13h-7.03v7.67h8.35v5.22h-14.47v-30.63Z"/>
    <path class="cls-2" d="M656.63,58.02h-6.08v-8.44h-4.85v8.44h-6.08v-27.31c0-1.95,1.32-3.31,3.27-3.31h10.44c1.95,0,3.31,1.36,3.31,3.31v27.31ZM650.55,44.5v-11.25c0-.45-.36-.73-.82-.73h-3.27c-.45,0-.77.32-.77.73v11.25h4.85Z"/>
    <path class="cls-2" d="M668.93,41.05v16.97h-5.4v-30.63h5.35l7.03,17.7v-17.7h5.4v30.63h-5.4l-6.99-16.97Z"/>
    <path class="cls-2" d="M687.49,52.66h7.99c.27,0,.41-.18.41-.41v-6.44c0-.23-.14-.41-.41-.41h-4.72c-1.91,0-3.27-1.41-3.27-3.31v-11.39c0-1.95,1.36-3.31,3.27-3.31h10.89v5.22h-7.67c-.23,0-.41.23-.41.5v6.35c0,.18.18.41.41.41h4.72c1.91,0,3.31,1.36,3.31,3.31v11.52c0,1.95-1.41,3.31-3.31,3.31h-11.21v-5.35Z"/>
    <path class="cls-2" d="M732.82,27.39l-4.63,30.63h-5.22l-3.58-19.15-3.68,19.15h-5.22l-4.67-30.63h5.9l2.13,19.6,3.09-19.6h5.08l3.09,19.42,2.27-19.42h5.45Z"/>
    <path class="cls-2" d="M737.81,27.39h14.47v5.22h-8.35v7.4h7.03v5.13h-7.03v7.67h8.35v5.22h-14.47v-30.63Z"/>
    <path class="cls-2" d="M771.79,27.39c2.13,0,3.58,1.5,3.58,3.63v13.34c0,1.86-1.09,3.22-2.77,3.54l2.86,10.12h-6.03l-2.77-10.03h-2.31v10.03h-6.12v-30.63h13.57ZM769.34,33.06c0-.23-.18-.45-.36-.45h-4.63v10.44h4.63c.18,0,.36-.23.36-.41v-9.57Z"/>
    <path class="cls-2" d="M780.92,52.66h7.99c.27,0,.41-.18.41-.41v-6.44c0-.23-.14-.41-.41-.41h-4.72c-1.91,0-3.27-1.41-3.27-3.31v-11.39c0-1.95,1.36-3.31,3.27-3.31h10.89v5.22h-7.67c-.23,0-.41.23-.41.5v6.35c0,.18.18.41.41.41h4.72c1.91,0,3.31,1.36,3.31,3.31v11.52c0,1.95-1.41,3.31-3.31,3.31h-11.21v-5.35Z"/>
  </g>
  <g>
    <path class="cls-1" d="M10.75,80.22h19.5v59.64h24.24v16.46H10.75v-76.1Z"/>
    <path class="cls-1" d="M71.18,80.22h49.72v16.35h-30.21v13.3h26.15v16.23h-26.15v13.75h30.21v16.46h-49.72v-76.1Z"/>
    <path class="cls-1" d="M186.85,80.22v16.46h-17.25v59.64h-19.62v-59.64h-17.25v-16.46h54.11Z"/>
    <path class="cls-1" d="M207.71,80.22h19.39l-13.98,34.05h-15.78l10.37-34.05Z"/>
    <path class="cls-1" d="M245.36,139.85h28.52c.79,0,1.24-.45,1.24-1.01v-11.05c0-.56-.45-1.01-1.24-1.01h-19.62c-5.3,0-8.91-3.61-8.91-8.91v-28.75c0-5.3,3.61-8.91,8.91-8.91h39.34v16.35h-27.51c-.68,0-1.13.56-1.13,1.24v11.16c0,.45.45,1.01,1.13,1.01h19.62c5.3,0,8.91,3.61,8.91,8.91v28.52c0,5.3-3.61,8.91-8.91,8.91h-40.36v-16.46Z"/>
    <path class="cls-1" d="M396.77,127.9v19.73c0,4.96-4.06,8.68-8.91,8.68h-38.22c-4.85,0-8.68-3.72-8.68-8.68v-58.85c0-4.62,3.83-8.57,8.68-8.57h38.22c4.85,0,8.91,3.95,8.91,8.57v19.62h-19.62v-10.6c0-.68-.56-1.24-1.01-1.24h-14.32c-.68,0-1.24.56-1.24,1.24v40.92c0,.68.56,1.13,1.24,1.13h14.32c.45,0,1.01-.45,1.01-1.13v-10.82h19.62Z"/>
    <path class="cls-1" d="M462.72,80.22c5.3,0,8.91,3.61,8.91,8.91v58.28c0,5.3-3.61,8.91-8.91,8.91h-39.12c-5.3,0-8.91-3.61-8.91-8.91v-58.28c0-5.3,3.61-8.91,8.91-8.91h39.12ZM452.01,97.91c0-.68-.56-1.24-1.24-1.24h-15.44c-.45,0-1.01.56-1.01,1.24v40.92c0,.56.56,1.01,1.01,1.01h15.44c.68,0,1.24-.45,1.24-1.01v-40.92Z"/>
    <path class="cls-1" d="M510.63,114.49v41.82h-18.04v-76.1h18.04l22.77,41.94v-41.94h18.04v76.1h-18.6l-22.21-41.82Z"/>
    <path class="cls-1" d="M591.13,114.49v41.82h-18.04v-76.1h18.04l22.77,41.94v-41.94h18.04v76.1h-18.6l-22.21-41.82Z"/>
    <path class="cls-1" d="M653.58,80.22h49.72v16.35h-30.21v13.3h26.15v16.23h-26.15v13.75h30.21v16.46h-49.72v-76.1Z"/>
    <path class="cls-1" d="M777.37,127.9v19.73c0,4.96-4.06,8.68-8.91,8.68h-38.22c-4.85,0-8.68-3.72-8.68-8.68v-58.85c0-4.62,3.83-8.57,8.68-8.57h38.22c4.85,0,8.91,3.95,8.91,8.57v19.62h-19.62v-10.6c0-.68-.56-1.24-1.01-1.24h-14.32c-.68,0-1.24.56-1.24,1.24v40.92c0,.68.56,1.13,1.24,1.13h14.32c.45,0,1.01-.45,1.01-1.13v-10.82h19.62Z"/>
    <path class="cls-1" d="M842.98,80.22v16.46h-17.25v59.64h-19.62v-59.64h-17.25v-16.46h54.11Z"/>
    <path class="cls-1" d="M876.24,128.13h-18.83l-1.69-47.91h22.21l-1.69,47.91ZM877.37,156.31h-21.08v-20.07h21.08v20.07Z"/>
  </g>
  <rect class="cls-2" x="10.75" y="1.29" width="867.18" height="3"/>
  <rect class="cls-2" x="10.75" y="184.79" width="867.18" height="3"/>
</svg>