<?xml version="1.0" encoding="UTF-8"?>
<svg id="Layer_1" data-name="Layer 1" xmlns="http://www.w3.org/2000/svg" viewBox="0 0 331.58 263.77">
  <defs>
    <style>
      .cls-1 {
        fill: #fff;
      }

      .cls-2 {
        fill: #cce3f1;
      }
    </style>
  </defs>
  <g>
    <path class="cls-2" d="M33.48,45.92l2.67-9.1c2.97,1.88,9.1,4.73,14.8,4.73,3.46,0,5.09-1.52,5.09-3.28,0-2.18-2.18-2.85-5.09-3.46l-1.39-.3c-10.92-2.37-15.34-5.88-15.34-13.4,0-9.7,7.58-14.98,17.83-14.98,7.52,0,13.16,2.91,16.31,4.91l-2.73,9.1c-3.58-2.12-8.85-3.82-12.68-3.82-3.21,0-4.91,1.46-4.91,3.21,0,2.24,2.36,2.85,5.03,3.4l1.46.3c10.43,2.18,15.34,5.7,15.34,13.65,0,9.7-7.52,14.86-18.07,14.86-8.43,0-15.4-3.34-18.32-5.82Z"/>
    <path class="cls-2" d="M75.75,28.94c0-13.59,9.4-22.8,22.92-22.8,10.92,0,18.8,5.76,21.83,14.92l-11.46,3.28c-1.46-4.97-4.91-8.25-9.64-8.25-5.7,0-10.19,4.61-10.19,11.28s4.12,12.74,12.49,12.74c5.94,0,10.01-2.91,12.86-6.06l6.55,4.73c-3.82,7.88-12.13,12.98-22.32,12.98-13.71,0-23.05-9.22-23.05-22.8Z"/>
    <path class="cls-2" d="M127.01,6.86h13.1v44.15h-13.1V6.86Z"/>
    <path class="cls-2" d="M149.08,6.86h31.96v10.31h-18.86v6.37h17.04v9.95h-17.04v7.22h19.47v10.31h-32.57V6.86Z"/>
    <path class="cls-2" d="M189.54,6.86h12.37l17.71,22.8V6.86h11.64v44.15h-11.16l-18.92-24.32v24.32h-11.64V6.86Z"/>
    <path class="cls-2" d="M249.1,17.17h-11.28V6.86h35.72v10.31h-11.34v33.84h-13.1V17.17Z"/>
    <path class="cls-2" d="M280.09,6.86h13.1v44.15h-13.1V6.86Z"/>
    <path class="cls-2" d="M0,103.65h19.41c10.79,0,18.07,6.19,18.07,15.71s-7.82,15.1-18.07,15.1h-6.31v13.34H0v-44.15ZM18.13,125c3.52,0,6.13-1.82,6.13-5.64s-2.61-5.64-6.13-5.64h-5.03v11.28h5.03Z"/>
    <path class="cls-2" d="M42.4,125.73c0-13.59,10.07-22.8,24.38-22.8s24.38,9.22,24.38,22.8-10.07,22.8-24.38,22.8-24.38-9.22-24.38-22.8ZM66.78,138.22c6.43,0,10.43-5.28,10.43-12.49s-4-12.49-10.43-12.49-10.43,5.28-10.43,12.49,4,12.49,10.43,12.49Z"/>
    <path class="cls-2" d="M105.66,113.96h-11.28v-10.31h35.72v10.31h-11.34v33.84h-13.1v-33.84Z"/>
    <path class="cls-2" d="M136.65,103.65h31.96v10.31h-18.86v6.37h17.04v9.95h-17.04v7.22h19.47v10.31h-32.57v-44.15Z"/>
    <path class="cls-2" d="M177.1,103.65h12.37l17.71,22.8v-22.8h11.64v44.15h-11.16l-18.92-24.32v24.32h-11.64v-44.15Z"/>
    <path class="cls-2" d="M236.66,113.96h-11.28v-10.31h35.72v10.31h-11.34v33.84h-13.1v-33.84Z"/>
    <path class="cls-2" d="M267.66,103.65h13.1v44.15h-13.1v-44.15Z"/>
    <path class="cls-2" d="M301.5,103.65h15.04l15.04,44.15h-13.71l-1.94-6.67h-15.53l-1.94,6.67h-12.07l15.1-44.15ZM313.14,131.55l-4.97-16.98-4.97,16.98h9.95Z"/>
    <path class="cls-2" d="M107.99,200.44h31.96v10.31h-18.86v6.37h17.04v9.95h-17.04v7.22h19.47v10.31h-32.57v-44.15Z"/>
    <path class="cls-2" d="M146.81,239.5l2.67-9.1c2.97,1.88,9.1,4.73,14.8,4.73,3.46,0,5.09-1.52,5.09-3.28,0-2.18-2.18-2.85-5.09-3.46l-1.39-.3c-10.92-2.37-15.34-5.88-15.34-13.4,0-9.7,7.58-14.98,17.83-14.98,7.52,0,13.16,2.91,16.31,4.91l-2.73,9.1c-3.58-2.12-8.85-3.82-12.68-3.82-3.21,0-4.91,1.46-4.91,3.21,0,2.24,2.36,2.85,5.03,3.4l1.46.3c10.43,2.18,15.34,5.7,15.34,13.65,0,9.7-7.52,14.86-18.07,14.86-8.43,0-15.4-3.34-18.32-5.82Z"/>
    <path class="cls-2" d="M198.3,210.75h-11.28v-10.31h35.72v10.31h-11.34v33.84h-13.1v-33.84Z"/>
  </g>
  <g>
    <path class="cls-1" d="M74.01,87.62l-2.61-1.55c.82-.77,2.19-2.45,2.64-4.21.27-1.07-.07-1.7-.61-1.84-.68-.17-1.06.45-1.48,1.31l-.2.41c-1.6,3.2-3.04,4.29-5.37,3.7-3.01-.77-4.05-3.54-3.23-6.72.6-2.33,1.95-3.85,2.82-4.67l2.61,1.57c-.94.94-1.89,2.44-2.19,3.63-.25,1,.06,1.64.61,1.78.7.18,1.07-.51,1.45-1.29l.21-.43c1.5-3.06,2.99-4.31,5.45-3.68,3.01.77,4.01,3.51,3.18,6.78-.67,2.62-2.26,4.51-3.26,5.22Z"/>
    <path class="cls-1" d="M71.3,65.44l-1.48,3.3-3.02-1.35,4.67-10.45,3.02,1.35-1.48,3.32,9.9,4.43-1.71,3.83-9.9-4.43Z"/>
    <path class="cls-1" d="M76.18,48.98l2.67-4.01,14.45,3.81-2.43,3.66-2.12-.66-2.75,4.14,1.44,1.7-2.14,3.22-9.1-11.86ZM85.69,50.82l-5.41-1.68,3.65,4.34,1.76-2.65Z"/>
    <path class="cls-1" d="M89.27,37.17l-2.47,2.64-2.41-2.26,7.82-8.35,2.41,2.26-2.48,2.65,7.91,7.41-2.87,3.06-7.91-7.41Z"/>
    <path class="cls-1" d="M97.47,24.54l8.15-6.19,2,2.63-4.81,3.65,1.23,1.62,4.35-3.3,1.93,2.54-4.35,3.3,1.4,1.84,4.97-3.77,2,2.63-8.31,6.3-8.55-11.26Z"/>
    <path class="cls-1" d="M121.92,16.83c-1.58-4.05.35-7.98,4.62-9.64,4.27-1.67,8.35-.09,9.93,3.97s-.35,7.98-4.62,9.64-8.35.09-9.93-3.97ZM130.65,17.72c1.92-.75,2.5-2.79,1.66-4.94-.84-2.15-2.65-3.26-4.57-2.51-1.92.75-2.5,2.79-1.66,4.94.84,2.15,2.65,3.26,4.57,2.51Z"/>
    <path class="cls-1" d="M141.24,2.81l9.84-1.78.59,3.29-5.71,1.03.43,2.39,5.12-.93.57,3.13-5.12.93.92,5.1-4.13.75-2.52-13.91Z"/>
    <path class="cls-1" d="M166.62,0l5.61.55,2.02,7.53,3.43-7,5.35.52-1.37,14.07-4.1-.4.88-9.06-4.25,8.74-1.95-.19-2.48-9.35-.88,9.03-3.63-.35,1.37-14.07Z"/>
    <path class="cls-1" d="M190.67,3.57l4.04,1.13-3.79,13.62-4.04-1.13,3.79-13.62Z"/>
    <path class="cls-1" d="M196.35,18.25l1.96-2.32c.63.93,2.05,2.56,3.72,3.3,1.01.45,1.69.21,1.92-.3.28-.64-.27-1.12-1.04-1.67l-.37-.27c-2.89-2.11-3.74-3.71-2.76-5.91,1.25-2.84,4.16-3.41,7.16-2.08,2.2.97,3.48,2.56,4.14,3.55l-1.98,2.31c-.77-1.08-2.1-2.27-3.22-2.76-.94-.42-1.63-.21-1.85.31-.29.66.32,1.14,1.04,1.65l.39.28c2.77,1.99,3.76,3.65,2.73,5.98-1.25,2.84-4.12,3.38-7.22,2.02-2.47-1.09-4.08-2.97-4.61-4.07Z"/>
    <path class="cls-1" d="M211.01,25.16l2.34-1.94c.45,1.03,1.57,2.88,3.08,3.9.92.62,1.62.51,1.94.04.39-.58-.07-1.15-.73-1.83l-.32-.33c-2.48-2.58-3.02-4.31-1.68-6.3,1.73-2.58,4.69-2.62,7.41-.79,2,1.34,2.97,3.13,3.45,4.22l-2.35,1.93c-.57-1.2-1.67-2.6-2.68-3.28-.85-.57-1.56-.49-1.88-.02-.4.6.12,1.18.73,1.8l.33.34c2.38,2.44,3.06,4.26,1.64,6.37-1.74,2.58-4.65,2.6-7.46.72-2.24-1.51-3.5-3.64-3.82-4.82Z"/>
    <path class="cls-1" d="M228.26,30.66c3.09-3.06,7.46-2.85,10.69.41,3.23,3.26,3.4,7.63.31,10.69-3.09,3.06-7.46,2.85-10.69-.41-3.23-3.26-3.4-7.63-.31-10.69ZM230.92,39.03c1.45,1.46,3.55,1.19,5.2-.44,1.64-1.63,1.94-3.73.49-5.19-1.45-1.46-3.55-1.18-5.2.44-1.64,1.63-1.94,3.73-.49,5.19Z"/>
    <path class="cls-1" d="M241.81,47.43l7.13-4.61,2.28,3.52-7.37,4.77c-1.32.85-1.27,2.05-.61,3.06.65,1.01,1.71,1.53,3.03.68l7.37-4.77,2.09,3.23-7.13,4.61c-3.11,2.02-6.29,1.11-8.34-2.05-2.05-3.16-1.56-6.42,1.56-8.43Z"/>
    <path class="cls-1" d="M259.36,60.37l2.42,6.02c1.3,3.23.43,6.07-2.37,7.19-1.66.67-3.29.19-4.56-.87l-3.98,4.47-1.69-4.22,3.47-3.66-.59-1.48-4.25,1.71-1.56-3.89,13.12-5.27ZM255.58,68.48c.42,1.04,1.24,1.62,2.26,1.21,1.04-.42,1.21-1.41.8-2.44l-.72-1.78-3.06,1.23.72,1.79Z"/>
    <path class="cls-1" d="M265.78,78.68l.96,4.08-13.76,3.25-.96-4.08,13.76-3.25Z"/>
  </g>
  <g>
    <path class="cls-1" d="M74.01,113.73v6.49c0,3.48-1.86,5.79-4.87,5.79-1.79,0-3.13-1.05-3.9-2.5l-5.36,2.66v-4.54l4.58-2.1v-1.59h-4.58v-4.19h14.14ZM67.49,119.85c0,1.13.54,1.96,1.65,1.96s1.65-.85,1.65-1.96v-1.92h-3.3v1.92Z"/>
    <path class="cls-1" d="M65.53,130.41h8.48v4.19h-8.78c-1.57,0-2.18,1.03-2.18,2.23s.6,2.21,2.18,2.21h8.78v3.85h-8.48c-3.71,0-5.88-2.49-5.88-6.25s2.17-6.23,5.88-6.23Z"/>
    <path class="cls-1" d="M74.01,148.77v6.49c0,3.48-1.86,5.79-4.87,5.79-1.79,0-3.13-1.05-3.9-2.5l-5.36,2.66v-4.54l4.58-2.1v-1.59h-4.58v-4.19h14.14ZM67.49,154.89c0,1.13.54,1.96,1.65,1.96s1.65-.85,1.65-1.96v-1.92h-3.3v1.92Z"/>
    <path class="cls-1" d="M74.55,169.29l.66,4.77-13.34,6.71-.6-4.35,2.03-.91-.68-4.92-2.2-.32-.53-3.83,14.67,2.85ZM66.21,174.21l5.17-2.32-5.6-.83.44,3.15Z"/>
    <path class="cls-1" d="M77.03,182.68l1.27,4-10.25,3.26,1.41,4.44-3.22,1.02-2.68-8.44,13.47-4.29Z"/>
    <path class="cls-1" d="M84.22,201.15l5.26,8.79-2.84,1.7-3.1-5.19-1.75,1.05,2.8,4.69-2.73,1.64-2.8-4.69-1.98,1.19,3.2,5.35-2.83,1.7-5.36-8.96,12.14-7.27Z"/>
    <path class="cls-1" d="M92.17,213.9l4.46,5.03c2.94,3.32,2.97,7.57-.22,10.41-3.2,2.84-7.42,2.29-10.36-1.02l-4.46-5.03,10.58-9.38ZM88.42,226c1.35,1.53,3.34,1.45,5.01-.03,1.67-1.48,1.98-3.44.63-4.97l-1.57-1.77-5.64,5,1.57,1.77Z"/>
    <path class="cls-1" d="M99.78,234.23l5.13-6.76,3.34,2.54-5.31,6.99c-.95,1.25-.49,2.35.46,3.08.96.73,2.13.86,3.08-.39l5.31-6.99,3.06,2.32-5.13,6.76c-2.24,2.95-5.54,3.18-8.54.91-3-2.28-3.65-5.5-1.41-8.45Z"/>
    <path class="cls-1" d="M115.36,243.68c1.92-3.91,5.92-5.23,9.81-3.32,3.14,1.54,4.59,4.31,4.17,7.37l-3.76-.68c.28-1.64-.25-3.07-1.61-3.73-1.64-.8-3.58-.11-4.52,1.81-.91,1.85-.61,4.25,1.8,5.43,1.71.84,3.29.57,4.55.07l1.22,2.29c-2.21,1.73-5.32,2.02-8.25.58-3.94-1.93-5.33-5.9-3.41-9.81Z"/>
    <path class="cls-1" d="M138.45,245.83l4.65,1.26.95,14.9-4.24-1.15-.04-2.22-4.8-1.3-1.16,1.9-3.73-1.01,8.37-12.38ZM139.71,255.43l-.11-5.66-2.96,4.83,3.07.83Z"/>
    <path class="cls-1" d="M152.76,252.2l-3.59-.37.34-3.29,11.38,1.17-.34,3.28-3.61-.37-1.11,10.78-4.17-.43,1.11-10.78Z"/>
    <path class="cls-1" d="M165.33,249.63l4.19-.13.44,14.14-4.19.13-.44-14.14Z"/>
    <path class="cls-1" d="M175.51,256.4c-.82-4.27,1.78-7.78,6.28-8.65s8.22,1.42,9.05,5.69c.82,4.27-1.78,7.78-6.28,8.65s-8.22-1.42-9.05-5.69ZM183.93,258.85c2.02-.39,2.96-2.29,2.52-4.56-.44-2.27-2.02-3.69-4.04-3.3-2.02.39-2.96,2.29-2.52,4.56.44,2.27,2.02,3.69,4.04,3.3Z"/>
    <path class="cls-1" d="M193.63,245.11l3.65-1.54,8.07,4.53-2.84-6.73,3.44-1.45,5.5,13.03-3.29,1.39-8.61-4.82,3.03,7.18-3.44,1.45-5.5-13.03Z"/>
    <path class="cls-1" d="M220.34,239.58c-2.76-3.37-2.13-7.69,1.41-10.6s7.91-2.66,10.67.7c2.76,3.37,2.13,7.69-1.41,10.6-3.55,2.9-7.91,2.66-10.67-.7ZM228.92,237.73c1.59-1.3,1.52-3.42.05-5.21-1.46-1.79-3.53-2.28-5.12-.98-1.59,1.3-1.51,3.42-.05,5.21,1.46,1.79,3.53,2.28,5.12.98Z"/>
    <path class="cls-1" d="M237.4,226.46l-6.58-5.37,2.65-3.25,6.8,5.55c1.22.99,2.34.58,3.1-.35s.93-2.1-.28-3.09l-6.8-5.55,2.43-2.98,6.58,5.37c2.87,2.35,2.99,5.65.6,8.57-2.38,2.92-5.63,3.45-8.5,1.11Z"/>
    <path class="cls-1" d="M245.64,206.45l-1.75,3.16-2.88-1.6,5.56-9.99,2.88,1.6-1.76,3.17,9.47,5.26-2.04,3.66-9.47-5.26Z"/>
    <path class="cls-1" d="M248.29,194.13l2.11-6.14c1.13-3.29,3.65-4.87,6.5-3.89,1.69.58,2.62,2.01,2.88,3.64l5.94-.77-1.48,4.3-5.02.49-.52,1.51,4.34,1.49-1.37,3.97-13.38-4.61ZM256.46,190.47c.37-1.06.13-2.03-.92-2.39-1.07-.37-1.84.27-2.2,1.32l-.63,1.82,3.12,1.08.63-1.82Z"/>
    <path class="cls-1" d="M253.27,178.06l1.57-10.12,3.26.51-.93,5.97,2.02.31.84-5.4,3.15.49-.84,5.39,2.29.35.96-6.16,3.26.51-1.6,10.31-13.98-2.17Z"/>
    <path class="cls-1" d="M255.13,159.41v-4.82l14.14-4.82v4.39l-2.14.62v4.97l2.14.62v3.87l-14.14-4.84ZM264.06,155.68l-5.44,1.59,5.44,1.59v-3.18Z"/>
    <path class="cls-1" d="M262.2,146.03c-4.35,0-7.3-3.01-7.3-7.34,0-3.5,1.84-6.02,4.78-6.99l1.05,3.67c-1.59.47-2.64,1.57-2.64,3.09,0,1.83,1.48,3.26,3.61,3.26s4.08-1.32,4.08-4c0-1.9-.93-3.2-1.94-4.12l1.51-2.1c2.52,1.22,4.16,3.88,4.16,7.15,0,4.39-2.95,7.38-7.3,7.38Z"/>
    <path class="cls-1" d="M263.67,117.56v4.76h5.59v4.19h-14.14v-4.19h5.13v-4.76h-5.13v-4.19h14.14v4.19h-5.59Z"/>
  </g>
  <g>
    <polygon class="cls-1" points="144.87 206.64 145.49 208.11 147.66 207.44 147.66 215.37 150.96 215.37 150.96 203.94 148.76 203.94 144.87 206.64"/>
    <path class="cls-1" d="M162.11,209.26c.99-.53,1.56-1.37,1.56-2.39,0-1.92-1.84-3.13-4.46-3.13s-4.44,1.21-4.44,3.13c0,1.02.55,1.85,1.54,2.39-1.27.53-2.09,1.49-2.09,2.78,0,2.14,2.11,3.52,4.99,3.52s4.99-1.38,4.99-3.52c0-1.29-.82-2.25-2.09-2.78ZM159.2,206.06c.79,0,1.43.46,1.43,1.16s-.64,1.16-1.43,1.16-1.41-.47-1.41-1.16.63-1.16,1.41-1.16ZM159.2,213.25c-.91,0-1.65-.5-1.65-1.34s.74-1.34,1.65-1.34,1.65.5,1.65,1.34-.74,1.34-1.65,1.34Z"/>
    <path class="cls-1" d="M171.71,212.72c1.82-1.4,3.93-3.05,3.93-5.31s-2.07-3.66-4.3-3.66c-2.34,0-4.48,1.51-4.29,4.48l2.1.19c.16-1.35.93-2.06,1.78-2.06.79,0,1.38.58,1.38,1.48,0,.68-.3,1.62-1.57,2.75l-3.57,3.14v1.65h8.51v-2.61h-4.04l.06-.05Z"/>
    <polygon class="cls-1" points="178.16 206.64 178.79 208.11 180.96 207.44 180.96 215.37 184.26 215.37 184.26 203.94 182.06 203.94 178.16 206.64"/>
    <path class="cls-1" d="M182.76,60.75l-14.34-27.18h-5.97l-14.04,27.12-41.6,10.32v136.84h4.26c9.53,0,22.68-8.75,24.15-9.74,3.39-2.3,13.49-8.27,19.36-8.27,1.51,0,2.96.29,4.33.87,1.32.56,2.51,1.36,3.54,2.39l3,2.99,3-2.99c1.04-1.03,2.23-1.84,3.55-2.39,1.36-.58,2.82-.87,4.33-.87,5.87,0,15.97,5.97,19.36,8.27,1.47,1,14.62,9.74,24.15,9.74h4.26V71l-41.32-10.25ZM215.56,77.66v91.38c-5.64-1.66-12.44-5.73-15.1-7.53-1.47-1-14.62-9.74-24.15-9.74-2.24,0-4.41.39-6.48,1.12v-8.72l32.5-19.11c5.83-3.43,8.03-10.62,5.1-16.72l-4.22-8.8-15.14-28.69,27.48,6.82ZM165.47,46.24l30.11,57.06,4.18,8.72c1,2.08.25,4.53-1.74,5.7l-28.18,16.57v-12.32l21.88-12.86-4.32-7.34-2.26,1.33h0s-15.29,8.98-15.29,8.98v-12.53l12.89-7.58-4.32-7.34-8.57,5.04v-20.34h-8.52v20.32l-8.54-5.02-4.32,7.34,12.86,7.56v12.54l-17.53-10.31-4.32,7.34,21.85,12.85v12.5l-28.24-16.61c-2.02-1.19-2.75-3.74-1.68-5.82l34.07-65.79ZM143.18,70.75l-19.35,37.36c-3.16,6.1-.99,13.6,4.92,17.08l32.56,19.15v8.65c-2.16-.79-4.42-1.22-6.75-1.22-9.53,0-22.68,8.75-24.15,9.74-2.67,1.81-9.46,5.87-15.1,7.53v-91.38l27.86-6.91ZM176.32,181.31c-2.65,0-5.22.52-7.64,1.54-1.13.48-2.22,1.06-3.23,1.74-1.02-.68-2.1-1.26-3.23-1.74-2.42-1.02-4.99-1.54-7.64-1.54-9.53,0-22.68,8.75-24.15,9.74-.19.13-.41.27-.64.42-.08.05-.16.1-.24.16-.17.11-.34.22-.52.33-.1.06-.2.13-.31.19-.19.12-.4.25-.61.38-.1.06-.19.12-.29.18-.31.19-.63.38-.96.57-.09.05-.18.1-.27.15-.26.15-.52.3-.79.45-.14.08-.28.15-.41.23-.24.13-.49.27-.74.4-.15.08-.29.16-.44.24-.29.15-.58.31-.88.46-.11.06-.22.11-.33.17-.39.2-.79.4-1.2.6-.14.07-.28.13-.42.2-.28.13-.56.27-.85.4-.16.07-.33.15-.49.22-.27.12-.55.24-.82.36-.16.07-.31.13-.47.2-.38.16-.76.31-1.13.45-.09.04-.19.07-.28.1-.36.13-.72.26-1.08.38-.15.05-.3.1-.45.14-.16.05-.32.09-.47.14v-20.78c8.79-1.85,18.63-8.4,19.89-9.25,3.39-2.3,13.49-8.27,19.36-8.27,1.51,0,2.96.29,4.33.87,1.32.56,2.51,1.36,3.54,2.39l3,2.99,3-2.99c1.04-1.03,2.23-1.84,3.55-2.39,1.36-.58,2.82-.87,4.33-.87,5.87,0,15.97,5.97,19.36,8.27,1.26.86,11.1,7.4,19.89,9.25v20.78c-.16-.05-.32-.09-.48-.14-.15-.05-.29-.09-.44-.14-.36-.12-.73-.25-1.09-.38-.08-.03-.16-.06-.24-.09-.39-.15-.77-.3-1.16-.46-.15-.06-.3-.13-.45-.19-.28-.12-.57-.24-.85-.37-.16-.07-.31-.14-.47-.21-.3-.14-.59-.27-.88-.41-.13-.06-.26-.12-.39-.18-.41-.2-.81-.4-1.21-.6-.1-.05-.2-.1-.3-.15-.31-.16-.61-.32-.91-.48-.14-.08-.28-.15-.42-.23-.26-.14-.51-.28-.76-.42-.13-.07-.26-.15-.39-.22-.28-.16-.55-.31-.81-.46-.09-.05-.17-.1-.26-.15-.34-.2-.66-.39-.97-.57-.1-.06-.19-.12-.29-.18-.21-.13-.42-.26-.61-.38-.11-.07-.21-.13-.31-.19-.18-.11-.36-.23-.52-.33-.08-.05-.17-.11-.24-.16-.23-.15-.45-.29-.64-.42-1.47-1-14.62-9.75-24.15-9.75Z"/>
  </g>
</svg>