<?xml version="1.0" encoding="UTF-8"?>
<svg id="Layer_1" data-name="Layer 1" xmlns="http://www.w3.org/2000/svg" viewBox="0 0 395.02 395.02">
  <path d="M278.68,384.41c-3.35,0-6.54-1.6-8.55-4.28l-103.03-137.44-127.96,138.29c-2.02,2.18-4.88,3.43-7.85,3.43H8.1c-2.78,0-5.19-1.58-6.3-4.12-1.11-2.54-.63-5.39,1.25-7.43l144.54-156.2L1.38,21.62c-1.57-2.1-1.82-4.86-.65-7.2,1.17-2.34,3.53-3.8,6.15-3.8h109.46c3.35,0,6.54,1.6,8.55,4.28l94.69,126.32L337.25,14.04c2.02-2.18,4.88-3.43,7.85-3.43h23.2c2.78,0,5.19,1.58,6.3,4.12,1.11,2.54.63,5.39-1.25,7.43l-134.25,145.08,154.54,206.17c1.57,2.1,1.82,4.86.65,7.2-1.17,2.34-3.53,3.8-6.15,3.8h-109.46ZM336.08,351.5L105.22,43.53h-46.28l230.86,307.97h46.28Z"/>
</svg>